<?xml version="1.0" standalone="no"?>
<!DOCTYPE svg PUBLIC "-//W3C//DTD SVG 20010904//EN" "http://www.w3.org/TR/2001/REC-SVG-20010904/DTD/svg10.dtd">
<!-- Created using Krita: https://krita.org -->
<svg xmlns="http://www.w3.org/2000/svg" 
    xmlns:xlink="http://www.w3.org/1999/xlink"
    xmlns:krita="http://krita.org/namespaces/svg/krita"
    xmlns:sodipodi="http://sodipodi.sourceforge.net/DTD/sodipodi-0.dtd"
    width="1140.48pt"
    height="1041.12pt"
    viewBox="0 0 1140.48 1041.12">
<defs/>
<path id="shape0" transform="matrix(1.31689664507256 0 0 1.31689664507256 129.646440049847 474.58358370373)" fill="#063954" fill-rule="evenodd" stroke="#063954" stroke-width="7.56720050991431" stroke-linecap="round" stroke-linejoin="round" d="M114.138 39.3679C99.145 44.2225 81.8651 57.5529 69.2775 67.6965C56.6611 77.8634 39.2739 93.7519 28.5975 106.037C21.6779 113.998 13.5539 125.843 8.75097 135.082C4.38298 143.484 -0.769256 156.326 0.0960089 165.12C0.723627 171.498 5.62683 181.115 10.2783 185.994C20.7985 197.026 40.6447 207.738 55.0806 213.486C76.799 222.134 108.997 227.242 132.466 229.778C171.299 233.974 224.087 235.306 263.309 234.36C296.02 233.571 339.821 228.57 372.26 224.686C399.809 221.388 436.491 214.664 463.392 207.886C494.755 199.984 537.422 188.891 566.234 174.793C580.206 167.957 594.498 158.18 605.138 147.077C609.642 142.376 621.244 125.757 623.858 119.717C628.514 108.955 631.761 101.125 633.578 89.4765C635.498 77.1565 635.46 58.5788 633.437 46.4955C631.978 37.7769 625.387 25.9522 619.538 19.9965C611.395 11.7057 595.636 4.99068 583.544 2.20237C572.823 -0.269699 557.502 -0.147706 546.378 0.165901C509.33 1.21041 460.181 10.2685 423.172 13.9121C373.139 18.8379 264.328 25.1126 255.164 28.1673C245.999 31.222 235.874 -0.0486076 114.138 39.3679Z"/><path id="shape1" transform="matrix(1.31689664507256 0 0 1.31689664507256 245.532341364814 177.941812835177)" fill="#063954" fill-rule="evenodd" stroke="#063954" stroke-width="7.56720050991431" stroke-linecap="round" stroke-linejoin="round" d="M0.0822148 313.597L29.7027 210.151C44.0162 163.213 60.5673 118.996 83.7942 74.7011C96.9807 49.1125 113.439 30.0673 131.41 14.0483C145.554 3.58703 154.753 3.0173 164.242 1.8659C185.618 -1.34502 206.994 0.488714 228.37 0.8291C250.778 3.52286 271.431 8.55563 290.962 15.0851L311.698 29.9459C321.877 25.6207 332.47 21.6956 342.682 19.8682C352.895 18.0407 366.8 16.7835 377.939 17.1953C413.668 18.9271 425.384 25.4953 440.051 31.4506C454.038 37.1868 459.866 47.3422 463.498 54.8147C474.66 107.37 476.202 156.411 484.882 208.967L493.906 297.872L496.018 316.189C488.721 324.966 489.632 324.834 475.435 335.648C470.118 339.299 457.116 346.926 448.961 351.176C440.805 355.426 430.29 359.353 419.432 362.886C395.715 368.401 374.248 372.559 355.028 375.359C325.507 378.057 308.536 379.499 304.117 379.687C297.487 379.967 196.643 377.156 177.106 374.336C157.57 371.516 68.7995 360.809 47.1222 351.872C32.6707 345.914 21.6033 339.743 13.9201 333.357C3.92685 324.1 -0.685785 317.514 0.0822148 313.597Z"/><path id="shape2" transform="matrix(1.31689664507256 0 0 1.31689664507256 463.994336406908 216.341922476297)" fill="none" stroke="#063954" stroke-width="7.56720050991431" stroke-linecap="round" stroke-linejoin="bevel" d="M0 0.509123C6.79731 6.26376 15.7917 9.99728 26.9832 11.7097C38.1747 13.4221 49.6298 14.5252 61.3486 15.0189C71.9552 14.0856 82.3072 14.6795 92.9138 13.7462C105.072 12.7989 116.489 11.8579 128.043 7.89131C135.638 6.1523 142.588 3.7691 148.153 0"/><path id="shape3" transform="matrix(1.31689664507256 0 0 1.31689664507256 494.907228426579 280.705529387972)" fill="none" stroke="#063954" stroke-width="7.56720050991431" stroke-linecap="round" stroke-linejoin="bevel" d="M0 0C1.34242 11.6717 7.95463 27.8939 13.3727 37.98C17.1625 45.0349 23.6569 54.278 29.5727 59.58C36.0795 65.4116 46.8686 71.9656 55.1327 74.7C64.7024 77.8663 79.2513 79.2064 89.3327 78.3C99.1181 77.4201 113.146 73.8807 121.373 68.94C129.103 64.2977 137.045 55.5386 139.553 50.04C142.832 42.8512 145.613 36.6306 146.371 29.2742C146.905 24.09 148.209 12.2937 147.135 7.38221"/><path id="shape4" transform="matrix(1.31689664507256 0 0 1.31689664507256 487.795465810302 505.642971103513)" fill="none" stroke="#063954" stroke-width="7.56720050991431" stroke-linecap="round" stroke-linejoin="round" d="M0 209.756C30.0888 205.632 70.7684 202.635 100.296 196.01C123.027 190.91 152.823 180.913 174.627 172.591C197.132 164.001 227.153 151.514 247.94 139.498C267.074 128.438 291.35 110.761 308.016 96.2231C314.5 90.5663 322.824 82.2741 327.871 75.3493C332.342 69.2159 338.59 60.2176 341.813 53.2912C345.885 44.5401 349.642 32.2352 351.8 22.9103C352.621 19.3639 353.091 14.3134 352.818 10.6915C352.573 7.44488 351.754 2.83181 350.272 0"/><path id="shape5" transform="matrix(1.3114274735452 -0.11989476816877 0.11989476816877 1.3114274735452 698.620610186175 38.7599207857455)" fill="#00c8c8" fill-rule="evenodd" stroke="#063954" stroke-width="7.56720050991431" stroke-linecap="square" stroke-linejoin="round" d="M0.194541 450.487C-2.57547 445.826 25.0398 413.033 31.8608 401.785C41.3083 386.206 52.4049 364.388 59.9408 347.785C70.4696 324.588 83.1387 292.833 90.9008 268.585C98.9664 243.388 108.244 208.972 112.501 182.905C115.214 166.288 118.656 143.545 119.837 126.689C121.273 106.179 121.252 78.8573 121.141 58.3449C121.046 40.8424 112.791 1.3525 116.821 0.0249329C119.519 -0.863878 133.872 22.2367 137.701 33.1449C148.599 64.1945 150.451 83.3133 152.821 105.145C155.303 128.011 156.152 159.397 153.541 182.185C151.155 203.001 142.999 230.378 136.981 250.585C132.015 267.259 124.499 289.381 117.541 305.305C111.406 319.347 101.662 337.508 93.7808 350.665C83.3311 368.111 68.7679 391.428 55.6208 406.825C49.3086 414.218 21.3973 441.955 13.4316 447.433C7.37275 451.599 2.2194 453.895 0.194541 450.487Z"/><path id="shape01" transform="matrix(1.31689659700927 0 0 1.31689659700927 234.60256099942 525.084847252473)" fill="#00c8c8" fill-rule="evenodd" stroke="#063954" stroke-width="7.92" stroke-linecap="square" stroke-linejoin="bevel" d="M4.69789 56.3478C9.40157 63.0446 15.1054 67.1636 21.2015 72.2956C31.7811 81.2019 45.7267 86.4077 66.2584 93.9331C86.7901 101.458 151.593 113.213 154.638 113.048C158.166 114.091 210.799 122.452 246.438 120.968C285.696 121.882 308.058 119.243 334.818 117.607C366.669 115.659 410.277 108.841 440.205 98.2605C458.658 91.7364 483.778 79.4943 498.244 66.6953C503.998 61.6046 508.984 58.9954 510.463 51.9309C511.019 49.2733 510.885 38.6792 510.463 30.0389C510.577 21.4801 507.835 5.16517 505.372 7.12862C499.946 11.4523 498.938 14.9524 493.662 19.6019C487.394 25.126 477.535 30.4967 469.734 34.1118C459.862 38.6861 445.92 44.6282 435.623 48.1125C422.907 52.4151 405.664 55.6795 392.475 58.0403C372.474 61.6204 343.695 64.4119 323.617 65.1679C300.438 66.0407 266.552 66.0415 242.838 65.8878C215.791 63.9285 185.488 61.1971 158.663 57.5312C139.729 54.9438 113.424 49.5558 94.769 45.3124C83.5402 42.7582 70.2452 37.8595 59.6399 33.3481C52.9804 30.5152 46.3943 27.5932 40.8779 22.6878C36.8496 19.1055 31.935 15.2316 28.0746 11.4561C24.5995 8.05733 22.4531 0.360643 18.656 0.000983923C16.2403 -0.227828 0.844965 39.5252 0.197892 41.7678C-0.788633 45.1868 2.10175 52.6516 4.69789 56.3478Z"/><path id="shape011" transform="matrix(1.31028024059059 0.131842062469899 -0.131842062469899 1.31028024059059 288.23977959784 422.72228087852)" fill="#ffeacc" fill-rule="evenodd" stroke="#063954" stroke-width="7.56720050991431" stroke-linecap="round" stroke-linejoin="round" d="M37.384 0L169.204 20.2543L168.84 53.5241L154.44 87.0041C150.631 94.3425 144.361 104.106 137.636 110.063C132.561 117.287 125.929 120.263 122.598 123.345C117.263 127.758 111.769 128.713 107.961 131.09C105.747 131.08 94.0184 135.209 86.308 137.106C77.0057 137.34 67.9118 137.387 61.2 137.044L0 121.564L37.08 33.0041Z"/><path id="shape11" transform="matrix(1.31028024059059 0.131842062469899 -0.131842062469899 1.31028024059059 357.441635868788 544.721124773625)" fill="none" stroke="#063954" stroke-width="7.56720050991431" stroke-linecap="round" stroke-linejoin="round" d="M0 49.8439C5.6912 50.0243 11.4848 48.4036 22.0582 45.0347C26.8767 43.1912 30.6521 38.5822 35.6267 32.453C39.6068 24.8864 40.3451 20.2855 42.4933 14.3948C51.3376 14.3705 59.0761 16.2932 64.3452 15.8143C69.4512 15.2396 73.7289 12.5732 78.7284 11.3685C85.3881 5.9232 91.1047 2.64 92.0612 0"/><path id="shape21" transform="matrix(1.31028024059059 0.131842062469899 -0.131842062469899 1.31028024059059 337.19291489713 428.689522273762)" fill="#ffeacc" fill-rule="evenodd" stroke="#063954" stroke-width="7.5672" stroke-linecap="round" stroke-linejoin="round" d="M130.914 51.143L130.32 20.5917L0 0.0716978C1.02209 -0.945747 1.17314 8.86553 0.453142 29.5055"/><text id="shape02" krita:useRichText="false" transform="matrix(1.31689669221701 0 0 1.31689669221701 99.6508583460702 954.429081605302)" fill="#063954" font-family="Tahoma" font-size="170" font-size-adjust="0.210526" font-stretch="normal" kerning="0" letter-spacing="-10" word-spacing="0"><tspan x="0">Guten</tspan></text><text id="shape011" krita:useRichText="false" transform="matrix(1.31689663889637 0 0 1.31689663889637 593.388237585554 954.745824815472)" fill="#063954" font-family="Tahoma" font-size="170" font-size-adjust="0.210526" font-stretch="normal" kerning="0" letter-spacing="-10" word-spacing="0"><tspan x="0">Tag</tspan></text>
</svg>
